solid 
facet normal 0 0 -1
	outer loop
			vertex -2 -2 -0.5
			vertex -2 0 -0.5
			vertex 1 -2 -0.5
	endloop
 endfacet
facet normal 0 -0.707107 0.707107
	outer loop
			vertex -2 -2 -0.5
			vertex 1 -2 -0.5
			vertex -0.5 -1 0.5
	endloop
 endfacet
facet normal -0.5547 0 0.83205
	outer loop
			vertex -0.5 -1 0.5
			vertex -2 0 -0.5
			vertex -2 -2 -0.5
	endloop
 endfacet
facet normal 0.5547 0.83205 0
	outer loop
			vertex -0.5 -1 0.5
			vertex 1 -2 -0.5
			vertex -2 0 -0.5
	endloop
 endfacet
endsolid 
